PathFileType	4	(X/Y/Z)	s09c0203.trc
DataRate	CameraRate	NumFrames	NumMarkers	Units	OrigDataRate	OrigDataStartFrame	OrigNumFrames
200	200	6	50	mm	200	0	2000
Frame#	Time	racr			lacr			c7			jug			rlel			rdr			llel			ldr			s2			lic			ric			lasi			rasi			rpsi			lpsi			rgt			lgt			rth1			rth2			rth3			rth4			rlfc			rmfc			rsh1			rsh2			rsh3			rsh4			rlmal			rmmal			rcal			rtoe			rmt5			lth1			lth2			lth4			lth3			llfc			lmfc			llmal			lmmal			lcal			lmt5			lsh1			lsh2			lsh3			lsh4			ltoe			SBIKE			LBIKE			RBIKE			
		X1	Y1	Z1	X2	Y2	Z2	X3	Y3	Z3	X4	Y4	Z4	X5	Y5	Z5	X6	Y6	Z6	X7	Y7	Z7	X8	Y8	Z8	X9	Y9	Z9	X10	Y10	Z10	X11	Y11	Z11	X12	Y12	Z12	X13	Y13	Z13	X14	Y14	Z14	X15	Y15	Z15	X16	Y16	Z16	X17	Y17	Z17	X18	Y18	Z18	X19	Y19	Z19	X20	Y20	Z20	X21	Y21	Z21	X22	Y22	Z22	X23	Y23	Z23	X24	Y24	Z24	X25	Y25	Z25	X26	Y26	Z26	X27	Y27	Z27	X28	Y28	Z28	X29	Y29	Z29	X30	Y30	Z30	X31	Y31	Z31	X32	Y32	Z32	X33	Y33	Z33	X34	Y34	Z34	X35	Y35	Z35	X36	Y36	Z36	X37	Y37	Z37	X38	Y38	Z38	X39	Y39	Z39	X40	Y40	Z40	X41	Y41	Z41	X42	Y42	Z42	X43	Y43	Z43	X44	Y44	Z44	X45	Y45	Z45	X46	Y46	Z46	X47	Y47	Z47	X48	Y48	Z48	X49	Y49	Z49	X50	Y50	Z50	
0	0.0000	508.251555	1296.355921	-108.949985	509.376569	1279.437332	-420.563871	458.065469	1309.073018	-234.582396	474.942954	1177.140970	-259.288694	502.206807	1065.315544	18.302006	688.056823	911.867775	-47.355459	452.430784	1020.095814	-531.039439	670.139330	908.815295	-460.509905	3.642617	1119.172385	-241.017679	139.675979	1118.757547	-387.636007	163.573357	1114.678733	-95.156363	185.086170	1064.771250	-369.739312	203.857224	1057.970668	-118.444898	44.612541	1148.421708	-177.637650	35.844250	1158.339166	-285.737641	130.386781	974.872197	-47.739092	99.466829	1007.786367	-435.714785	214.428922	863.905445	-48.985900	282.118059	809.080585	-55.857233	309.764073	724.578875	-61.000778	308.825682	825.928323	-78.057083	342.800495	623.884990	-90.189047	326.816333	609.794630	-186.976124	257.734954	560.370297	-63.568580	215.626493	481.956458	-78.558877	140.726777	436.984016	-81.183430	236.084606	466.857941	-110.727552	69.061640	364.755490	-85.341971	78.956642	375.694263	-163.696640	-16.399703	363.025167	-124.724736	223.734667	251.351186	-123.966657	139.967191	269.163097	-60.740060	218.587604	941.601221	-441.107239	303.926082	935.790538	-440.005325	317.209721	967.972878	-423.349921	378.763051	885.049802	-443.545508	466.796031	823.051044	-430.058159	492.384097	818.026925	-331.652526	374.711925	479.504251	-409.436046	390.129022	484.946185	-339.139108	299.755143	455.607593	-368.627696	455.783457	375.319967	-433.802476	444.185273	724.495105	-444.710395	444.257131	638.540507	-430.391372	399.304419	562.228186	-421.689159	470.829406	636.089209	-400.956965	547.904384	376.679481	-368.487554	-64.874712	851.021460	-240.747350	21.175741	83.651226	-442.329598	21.235483	83.806367	-43.856908	
1	0.0050	508.303135	1296.297845	-108.884180	509.405559	1279.439539	-420.559684	458.110655	1309.042566	-234.554095	474.944328	1177.110328	-259.289355	502.221964	1065.306455	18.330611	688.052852	911.873047	-47.345558	452.446864	1020.115000	-531.030505	670.149703	908.810614	-460.501834	3.666996	1119.191967	-240.995422	139.686606	1118.751856	-387.615879	163.605222	1114.674403	-95.128448	185.077001	1064.785893	-369.741729	203.883401	1057.945049	-118.385495	44.623669	1148.417378	-177.609789	35.844837	1158.356159	-285.726664	130.406169	974.865334	-47.724619	99.465527	1007.794327	-435.703940	214.466981	863.881009	-48.995175	282.109873	809.080998	-55.836779	309.822035	724.542619	-61.027760	308.852926	825.941614	-78.037038	342.824908	623.894094	-90.185100	326.812037	609.831271	-186.993789	257.761114	560.370380	-63.585160	215.654845	481.945314	-78.561152	140.740257	436.966308	-81.160183	236.100377	466.878606	-110.712625	69.107482	364.756419	-85.336127	78.994337	375.671672	-163.713130	-16.384972	363.046477	-124.734424	223.757895	251.325908	-123.937537	139.996044	269.148151	-60.736604	218.584551	941.611297	-441.105067	303.934654	935.774631	-439.995428	317.209384	967.968554	-423.345760	378.749299	885.063158	-443.576702	466.794723	823.066702	-430.070251	492.410672	818.055648	-331.636652	374.711433	479.525273	-409.424895	390.119277	484.982322	-339.110966	299.748245	455.613576	-368.627132	455.774794	375.332728	-433.813679	444.163762	724.523403	-444.719715	444.258475	638.592314	-430.396557	399.285966	562.257853	-421.713863	470.803170	636.126079	-400.981657	547.913302	376.710839	-368.506880	-64.869622	851.020964	-240.750704	21.182642	83.655640	-442.314285	21.267271	83.790980	-43.856173	
2	0.0100	508.315272	1296.281667	-108.859388	509.425386	1279.447536	-420.532962	458.134244	1309.059419	-234.550860	474.943812	1177.126180	-259.296960	502.226103	1065.286384	18.360944	688.055234	911.863453	-47.350548	452.461304	1020.127784	-531.045055	670.166114	908.797719	-460.482480	3.701389	1119.183172	-240.998380	139.690055	1118.752340	-387.617496	163.611215	1114.647568	-95.119740	185.076078	1064.781783	-369.724050	203.901928	1057.913536	-118.393525	44.664762	1148.401263	-177.610651	35.837347	1158.340954	-285.703255	130.431358	974.870970	-47.715559	99.452617	1007.795070	-435.699216	214.472917	863.867825	-48.995551	282.120373	809.078847	-55.843331	309.833907	724.527846	-61.028866	308.856380	825.922053	-78.049718	342.835963	623.888433	-90.204881	326.830264	609.805156	-187.016793	257.768260	560.361620	-63.599011	215.669217	481.936076	-78.557601	140.778561	436.940644	-81.172919	236.098739	466.870188	-110.736952	69.115356	364.750745	-85.335401	79.020354	375.652198	-163.715089	-16.361640	363.029054	-124.719856	223.786301	251.311537	-123.923508	140.021597	269.098505	-60.720969	218.585833	941.622524	-441.106282	303.905912	935.797059	-440.009712	317.197542	967.990167	-423.343007	378.745093	885.062575	-443.591076	466.789235	823.073751	-430.083758	492.407982	818.058664	-331.625521	374.704410	479.527918	-409.415992	390.135787	484.983079	-339.113281	299.739904	455.599415	-368.600766	455.766610	375.332272	-433.799917	444.168276	724.524092	-444.712361	444.241047	638.587873	-430.390389	399.274183	562.275202	-421.707010	470.795295	636.114367	-400.978398	547.897123	376.726612	-368.495447	-64.873214	851.020209	-240.734224	21.187893	83.648168	-442.309200	21.282538	83.792339	-43.849358	
3	0.0150	508.142123	1297.711031	-107.100443	509.435696	1279.446710	-420.520718	457.770228	1308.999191	-234.624069	474.980854	1177.101070	-259.281232	502.416368	1065.209071	18.553547	688.097538	911.841319	-47.367460	452.377417	1020.393309	-531.061815	670.172037	908.786415	-460.487853	3.401048	1118.959997	-240.747503	139.688163	1118.745873	-387.616658	163.624256	1114.643571	-95.106122	185.076078	1064.781783	-369.724050	203.903575	1057.675326	-118.309851	44.899393	1148.308759	-177.441403	35.972163	1158.387867	-285.634343	130.432670	974.834900	-47.714899	99.432804	1007.807090	-435.701113	214.495745	863.884026	-48.957719	282.129655	809.059657	-55.854071	309.834706	724.523845	-61.043417	307.330386	825.738089	-77.735176	343.173852	623.669204	-90.121802	326.852669	609.806714	-187.029392	257.767137	560.357617	-63.614406	215.840421	481.872208	-78.397064	140.233213	437.524246	-80.810559	236.321258	468.023735	-109.728647	69.075478	364.539163	-85.257496	79.022329	375.648540	-163.713081	-16.335986	363.000433	-124.718178	223.770672	251.264701	-123.913160	140.017690	269.094448	-60.719942	218.559007	941.611910	-441.103674	303.908510	935.794162	-440.021758	316.932959	968.379186	-423.271802	378.743259	885.070282	-443.583801	466.780111	823.079239	-430.085727	492.454292	817.965550	-331.746229	374.444301	479.945631	-409.473820	390.111297	484.995778	-339.072273	299.738973	455.584072	-368.558372	455.764386	375.358893	-433.808860	444.145787	724.543728	-444.719830	444.363629	638.434418	-430.290256	399.293038	562.171958	-421.774513	470.708177	636.304802	-401.002767	547.893034	376.752002	-368.495935	-64.877002	851.017070	-240.745525	21.180374	83.607046	-442.282557	21.282801	83.777904	-43.849130	
4	0.0200	508.176388	1297.510789	-107.489730	509.344833	1279.837467	-420.569081	457.753469	1309.065027	-234.448690	474.953599	1177.196912	-259.273896	502.161273	1065.649001	18.548599	687.860384	912.243190	-47.281554	452.266003	1020.703271	-531.156202	670.077997	908.980962	-460.528439	3.354848	1119.102646	-240.769685	139.627491	1118.946697	-387.608509	163.593971	1114.653065	-95.276307	185.061790	1064.836172	-369.747375	203.579097	1057.984341	-118.550137	44.896085	1148.408368	-177.441421	35.864710	1158.528197	-285.550906	130.326750	974.950291	-48.095506	99.443578	1008.047748	-435.544317	214.327425	864.292110	-48.956331	282.026856	809.309203	-55.812638	309.569132	724.985638	-61.016532	307.226874	826.071872	-77.663592	342.747334	624.025740	-90.108643	326.453935	610.328755	-187.131428	257.437359	560.662026	-63.761041	215.596030	482.331572	-78.338519	140.224140	437.458877	-80.823885	236.290529	468.288766	-109.734949	68.935440	364.865777	-85.092990	78.348385	376.246547	-163.746137	-16.325304	363.005976	-124.735871	223.734017	251.564400	-123.740984	139.885240	269.286985	-60.626806	218.558195	941.636044	-441.092683	303.812336	936.015082	-439.743558	316.915811	968.411882	-423.280124	378.571875	885.177509	-443.509864	466.725960	823.249122	-430.049916	492.427628	817.925528	-331.765648	374.408933	479.941158	-409.560218	389.873274	485.281648	-339.027614	299.514046	455.758819	-368.767846	455.535299	375.719088	-434.074216	443.964598	724.826893	-444.947209	444.318049	638.670362	-430.245134	399.029231	562.483869	-421.738744	470.657412	636.536330	-401.045833	547.710716	377.043445	-368.640874	-64.880600	851.047508	-240.753333	21.059989	83.830041	-442.347236	21.154162	83.976500	-43.884065	
5	0.0250	508.197590	1297.410975	-107.630788	509.365483	1279.954348	-420.543404	457.749215	1308.983255	-234.336747	474.974531	1177.138214	-259.266062	502.133797	1065.738786	18.576108	687.904270	912.181471	-47.286960	452.277523	1020.778619	-531.195557	670.100037	908.989833	-460.545999	3.303267	1119.138721	-240.794737	139.642752	1118.951174	-387.573083	163.615514	1114.654356	-95.351413	185.076157	1064.844145	-369.731092	203.546932	1058.002187	-118.592465	44.936896	1148.461169	-177.465515	35.881089	1158.578762	-285.538841	130.334891	974.940319	-48.158479	99.397800	1008.102328	-435.538113	214.283879	864.340189	-48.963493	282.017397	809.356496	-55.816890	309.524478	725.058857	-61.079448	307.191539	826.104564	-77.673821	342.655026	624.077819	-90.128368	326.388801	610.438670	-187.188165	257.396821	560.711342	-63.814343	215.549113	482.418153	-78.390014	140.235845	437.446261	-80.829100	236.288784	468.329171	-109.761441	68.926749	364.908950	-85.070678	78.178752	376.360768	-163.762212	-16.324198	363.017099	-124.756229	223.718513	251.592085	-123.738628	139.864463	269.306577	-60.600858	218.559400	941.649411	-441.092927	303.790649	936.037848	-439.690579	316.911232	968.410913	-423.277072	378.584085	885.211064	-443.436817	466.741448	823.294561	-430.011136	492.403702	817.940848	-331.765570	374.404507	479.961733	-409.557460	389.829451	485.344633	-339.029089	299.575795	455.735801	-368.718514	455.558758	375.736663	-434.049101	443.984684	724.908040	-444.960237	444.307238	638.693728	-430.223494	399.016741	562.512364	-421.716231	470.626501	636.568903	-401.054556	547.721207	377.064301	-368.622333	-64.885306	851.051027	-240.736085	21.068794	83.859934	-442.327008	21.132774	84.000990	-43.900705	
